<svg xmlns="http://www.w3.org/2000/svg" viewBox="0 0 120 120" fill="none">
  <circle cx="60" cy="60" r="54" stroke="url(#g1)" stroke-width="1" stroke-dasharray="4 3" opacity="0.6"/>
  <circle cx="60" cy="60" r="42" stroke="url(#g1)" stroke-width="0.5" opacity="0.4"/>
  <circle cx="60" cy="60" r="30" stroke="url(#g1)" stroke-width="0.3" opacity="0.2"/>
  <ellipse cx="60" cy="60" rx="14" ry="32" fill="url(#g2)"/>
  <ellipse cx="60" cy="60" rx="14" ry="32" stroke="url(#g1)" stroke-width="1.5" fill="none"/>
  <ellipse cx="60" cy="60" rx="8" ry="20" fill="url(#g3)" opacity="0.6"/>
  <line x1="60" y1="6"   x2="60" y2="22"  stroke="url(#g1)" stroke-width="1.5"/>
  <line x1="60" y1="98"  x2="60" y2="114" stroke="url(#g1)" stroke-width="1.5"/>
  <line x1="6"  y1="60"  x2="22" y2="60"  stroke="url(#g1)" stroke-width="1.5"/>
  <line x1="98" y1="60"  x2="114" y2="60" stroke="url(#g1)" stroke-width="1.5"/>
  <line x1="20" y1="20"  x2="30" y2="30"  stroke="url(#g1)" stroke-width="0.8" opacity="0.5"/>
  <line x1="100" y1="20" x2="90" y2="30"  stroke="url(#g1)" stroke-width="0.8" opacity="0.5"/>
  <line x1="20" y1="100" x2="30" y2="90"  stroke="url(#g1)" stroke-width="0.8" opacity="0.5"/>
  <line x1="100" y1="100" x2="90" y2="90" stroke="url(#g1)" stroke-width="0.8" opacity="0.5"/>
  <circle cx="60" cy="60" r="4" fill="#E8B94F"/>
  <circle cx="60" cy="60" r="4" fill="#E8B94F" opacity="0.4">
    <animate attributeName="r" values="4;8;4" dur="3s" repeatCount="indefinite"/>
    <animate attributeName="opacity" values="0.4;0;0.4" dur="3s" repeatCount="indefinite"/>
  </circle>
  <defs>
    <linearGradient id="g1" x1="0%" y1="0%" x2="100%" y2="100%">
      <stop offset="0%"   stop-color="#C9A84C"/>
      <stop offset="50%"  stop-color="#E8B94F"/>
      <stop offset="100%" stop-color="#C9A84C"/>
    </linearGradient>
    <radialGradient id="g2" cx="50%" cy="50%" r="50%">
      <stop offset="0%"   stop-color="#6A9FE0"/>
      <stop offset="50%"  stop-color="#1B3A6B"/>
      <stop offset="100%" stop-color="#07080F"/>
    </radialGradient>
    <radialGradient id="g3" cx="40%" cy="30%" r="60%">
      <stop offset="0%"   stop-color="#A0C4FF" stop-opacity="0.8"/>
      <stop offset="100%" stop-color="#1B3A6B" stop-opacity="0"/>
    </radialGradient>
  </defs>
</svg>
